<?xml version="1.0" encoding="utf-8"?>
<!-- Generator: Adobe Illustrator 22.1.0, SVG Export Plug-In . SVG Version: 6.00 Build 0)  -->
<svg xmlns="http://www.w3.org/2000/svg" width="35" height="12" viewBox="0 0 35 12" fill="none">
<path d="M11.5504 2.72727H13.7273L15.5739 7.23011H15.6591L17.5057 2.72727H19.6825V10H17.9709V5.53267H17.9105L16.1634 9.95384H15.0696L13.3224 5.50781H13.2621V10H11.5504V2.72727ZM27.6433 6.36364C27.6433 7.16383 27.4894 7.84209 27.1816 8.39844C26.8739 8.95478 26.4572 9.37737 25.9316 9.66619C25.4084 9.95502 24.8213 10.0994 24.1703 10.0994C23.5169 10.0994 22.9286 9.95384 22.4054 9.66264C21.8822 9.37145 21.4667 8.94886 21.1589 8.39489C20.8535 7.83854 20.7008 7.16146 20.7008 6.36364C20.7008 5.56345 20.8535 4.88518 21.1589 4.32884C21.4667 3.77249 21.8822 3.34991 22.4054 3.06108C22.9286 2.77225 23.5169 2.62784 24.1703 2.62784C24.8213 2.62784 25.4084 2.77225 25.9316 3.06108C26.4572 3.34991 26.8739 3.77249 27.1816 4.32884C27.4894 4.88518 27.6433 5.56345 27.6433 6.36364ZM25.8464 6.36364C25.8464 5.89015 25.7789 5.49006 25.644 5.16335C25.5114 4.83665 25.3197 4.58925 25.0687 4.42116C24.8201 4.25308 24.5207 4.16903 24.1703 4.16903C23.8223 4.16903 23.5228 4.25308 23.2718 4.42116C23.0209 4.58925 22.8279 4.83665 22.693 5.16335C22.5604 5.49006 22.4941 5.89015 22.4941 6.36364C22.4941 6.83712 22.5604 7.23722 22.693 7.56392C22.8279 7.89062 23.0209 8.13802 23.2718 8.30611C23.5228 8.4742 23.8223 8.55824 24.1703 8.55824C24.5207 8.55824 24.8201 8.4742 25.0687 8.30611C25.3197 8.13802 25.5114 7.89062 25.644 7.56392C25.7789 7.23722 25.8464 6.83712 25.8464 6.36364ZM28.6696 10V2.72727H31.7022C32.2467 2.72727 32.7025 2.80421 33.0694 2.9581C33.4387 3.11198 33.7157 3.32741 33.9004 3.6044C34.0874 3.88139 34.1809 4.20218 34.1809 4.56676C34.1809 4.84375 34.1229 5.09115 34.0069 5.30895C33.8909 5.52438 33.7311 5.70312 33.5275 5.84517C33.3239 5.98722 33.0884 6.08665 32.8208 6.14347V6.21449C33.1144 6.22869 33.3855 6.308 33.6341 6.45241C33.885 6.59683 34.0862 6.79806 34.2377 7.05611C34.3893 7.31179 34.465 7.61482 34.465 7.9652C34.465 8.35582 34.3656 8.70502 34.1667 9.01278C33.9679 9.31818 33.6802 9.55966 33.3038 9.73722C32.9274 9.91241 32.4705 10 31.9331 10H28.6696ZM30.4274 8.5831H31.514C31.8952 8.5831 32.1757 8.51089 32.3556 8.36648C32.5379 8.22206 32.6291 8.02083 32.6291 7.76278C32.6291 7.57576 32.5853 7.41477 32.4977 7.27983C32.4101 7.14252 32.2858 7.03717 32.1248 6.96378C31.9638 6.88802 31.7709 6.85014 31.546 6.85014H30.4274V8.5831ZM30.4274 5.71733H31.4004C31.5922 5.71733 31.7626 5.68537 31.9118 5.62145C32.0609 5.55753 32.1769 5.4652 32.2598 5.34446C32.345 5.22372 32.3876 5.07812 32.3876 4.90767C32.3876 4.66383 32.3012 4.47206 32.1284 4.33239C31.9556 4.19271 31.7224 4.12287 31.4288 4.12287H30.4274V5.71733Z" fill="url(#paint0_linear_103_13)"/>
<line y1="3.6" x2="9" y2="3.6" stroke="url(#paint1_linear_103_13)" stroke-width="0.8"/>
<line x1="4.6" y1="9" x2="4.6" y2="4" stroke="url(#paint2_linear_103_13)" stroke-width="0.8"/>
<path d="M4.5 7L6.66506 9.25H2.33494L4.5 7Z" fill="url(#paint3_linear_103_13)"/>
<circle cx="1.5" cy="5.5" r="0.5" fill="url(#paint4_linear_103_13)"/>
<circle cx="7" cy="6" r="1" fill="url(#paint5_linear_103_13)"/>
<defs>
<linearGradient id="paint0_linear_103_13" x1="11" y1="5.6" x2="35" y2="5.6" gradientUnits="userSpaceOnUse">
<stop stop-color="#84D9D2"/>
<stop offset="1" stop-color="#07CDAE"/>
</linearGradient>
<linearGradient id="paint1_linear_103_13" x1="4.5" y1="4" x2="4.5" y2="5" gradientUnits="userSpaceOnUse">
<stop stop-color="#84D9D2"/>
<stop offset="1" stop-color="#07CDAE"/>
</linearGradient>
<linearGradient id="paint2_linear_103_13" x1="5" y1="6.5" x2="6" y2="6.5" gradientUnits="userSpaceOnUse">
<stop stop-color="#84D9D2"/>
<stop offset="1" stop-color="#07CDAE"/>
</linearGradient>
<linearGradient id="paint3_linear_103_13" x1="4.5" y1="7" x2="4.5" y2="10" gradientUnits="userSpaceOnUse">
<stop stop-color="#84D9D2"/>
<stop offset="1" stop-color="#07CDAE"/>
</linearGradient>
<linearGradient id="paint4_linear_103_13" x1="1.5" y1="5" x2="1.5" y2="6" gradientUnits="userSpaceOnUse">
<stop stop-color="#84D9D2"/>
<stop offset="1" stop-color="#07CDAE"/>
</linearGradient>
<linearGradient id="paint5_linear_103_13" x1="7" y1="5" x2="7" y2="7" gradientUnits="userSpaceOnUse">
<stop stop-color="#84D9D2"/>
<stop offset="1" stop-color="#07CDAE"/>
</linearGradient>
</defs>
</svg>